<svg version="1.1" viewBox="0.0 0.0 509.34383202099735 199.6509186351706" fill="none" stroke="none" stroke-linecap="square" stroke-miterlimit="10" xmlns:xlink="http://www.w3.org/1999/xlink" xmlns="http://www.w3.org/2000/svg"><clipPath id="p.0"><path d="m0 0l509.34384 0l0 199.65092l-509.34384 0l0 -199.65092z" clip-rule="nonzero"/></clipPath><g clip-path="url(#p.0)"><path fill="#000000" fill-opacity="0.0" d="m0 0l509.34384 0l0 199.65092l-509.34384 0z" fill-rule="evenodd"/><path fill="#9900ff" d="m94.31759 93.74803l0 0c0 -47.435608 73.199684 -85.88976 163.49606 -85.88976l0 0c90.29636 0 163.49606 38.454155 163.49606 85.88976l0 0c0 47.435608 -73.19971 85.88977 -163.49606 85.88977l0 0c-90.29639 0 -163.49606 -38.454163 -163.49606 -85.88977z" fill-rule="evenodd"/><path stroke="#000000" stroke-width="1.0" stroke-linejoin="round" stroke-linecap="butt" d="m94.31759 93.74803l0 0c0 -47.435608 73.199684 -85.88976 163.49606 -85.88976l0 0c90.29636 0 163.49606 38.454155 163.49606 85.88976l0 0c0 47.435608 -73.19971 85.88977 -163.49606 85.88977l0 0c-90.29639 0 -163.49606 -38.454163 -163.49606 -85.88977z" fill-rule="evenodd"/><path fill="#00ffff" d="m58.283466 92.75853l393.82675 0l49.51181 49.51181l0 49.51181l0 0l-492.85037 0l0 0l0 -49.51181z" fill-rule="evenodd"/><path stroke="#000000" stroke-width="1.0" stroke-linejoin="round" stroke-linecap="butt" d="m58.283466 92.75853l393.82675 0l49.51181 49.51181l0 49.51181l0 0l-492.85037 0l0 0l0 -49.51181z" fill-rule="evenodd"/></g></svg>