<svg version="1.1" viewBox="0.0 0.0 386.7244094488189 341.1364829396326" fill="none" stroke="none" stroke-linecap="square" stroke-miterlimit="10" xmlns:xlink="http://www.w3.org/1999/xlink" xmlns="http://www.w3.org/2000/svg"><clipPath id="p.0"><path d="m0 0l386.7244 0l0 341.13647l-386.7244 0l0 -341.13647z" clip-rule="nonzero"/></clipPath><g clip-path="url(#p.0)"><path fill="#000000" fill-opacity="0.0" d="m0 0l386.7244 0l0 341.13647l-386.7244 0z" fill-rule="evenodd"/><defs><linearGradient id="p.1" gradientUnits="userSpaceOnUse" gradientTransform="matrix(17.73829139543482 0.0 0.0 -17.73829139543482 0.0 0.0)" spreadMethod="pad" x1="0.5038257448130434" y1="-18.23294322054921" x2="0.5037615513627138" y2="-0.4946518252305445"><stop offset="0.0" stop-color="#741b47"/><stop offset="1.0" stop-color="#341827"/></linearGradient></defs><path fill="url(#p.1)" d="m8.937008 284.08923l0 0c0 -21.72174 82.06938 -39.330704 183.30708 -39.330704c101.23772 0 183.30708 17.608963 183.30708 39.330704l0 -235.98425c0 -21.721752 -82.06937 -39.33071 -183.30708 -39.33071c-101.23771 0 -183.30708 17.608957 -183.30708 39.33071z" fill-rule="evenodd"/><defs><linearGradient id="p.2" gradientUnits="userSpaceOnUse" gradientTransform="matrix(17.73829139543482 0.0 0.0 -17.73829139543482 0.0 0.0)" spreadMethod="pad" x1="0.5038257448130434" y1="-18.23294322054921" x2="0.5037615513627138" y2="-0.4946518252305445"><stop offset="0.0" stop-color="#741b47"/><stop offset="1.0" stop-color="#341827"/></linearGradient></defs><path fill="url(#p.2)" d="m8.937008 284.08923l0 0c0 21.721771 82.06938 39.33072 183.30708 39.33072c101.23772 0 183.30708 -17.608948 183.30708 -39.33072l0 0c0 -21.72174 -82.06937 -39.330704 -183.30708 -39.330704c-101.23771 0 -183.30708 17.608963 -183.30708 39.330704z" fill-rule="evenodd"/><path fill="#000000" fill-opacity="0.0" d="m375.55118 284.08923l0 0c0 -21.72174 -82.06937 -39.330704 -183.30708 -39.330704c-101.23771 0 -183.30708 17.608963 -183.30708 39.330704l0 0c0 21.721771 82.06938 39.33072 183.30708 39.33072c101.23772 0 183.30708 -17.608948 183.30708 -39.33072l0 -235.98425c0 -21.721752 -82.06937 -39.33071 -183.30708 -39.33071c-101.23771 0 -183.30708 17.608957 -183.30708 39.33071l0 235.98425" fill-rule="evenodd"/><path fill="#ffffff" fill-opacity="0.4" d="m8.937008 284.08923l0 0c0 21.721771 82.06938 39.33072 183.30708 39.33072c101.23772 0 183.30708 -17.608948 183.30708 -39.33072l0 0c0 -21.72174 -82.06937 -39.330704 -183.30708 -39.330704c-101.23771 0 -183.30708 17.608963 -183.30708 39.330704z" fill-rule="evenodd"/><path stroke="#000000" stroke-width="2.0" stroke-linejoin="round" stroke-linecap="butt" d="m375.55118 284.08923l0 0c0 -21.72174 -82.06937 -39.330704 -183.30708 -39.330704c-101.23771 0 -183.30708 17.608963 -183.30708 39.330704l0 0c0 21.721771 82.06938 39.33072 183.30708 39.33072c101.23772 0 183.30708 -17.608948 183.30708 -39.33072l0 -235.98425c0 -21.721752 -82.06937 -39.33071 -183.30708 -39.33071c-101.23771 0 -183.30708 17.608957 -183.30708 39.33071l0 235.98425" fill-rule="evenodd"/><defs><linearGradient id="p.3" gradientUnits="userSpaceOnUse" gradientTransform="matrix(9.72556919672241 0.0 0.0 9.72556919672241 0.0 0.0)" spreadMethod="pad" x1="38.614827935101815" y1="34.07759071285262" x2="38.61493757114926" y2="24.352021516748174"><stop offset="0.0" stop-color="#741b47"/><stop offset="1.0" stop-color="#341827"/></linearGradient></defs><path fill="url(#p.3)" d="m8.937008 284.1286l0 0c0 -26.118286 82.06938 -47.291336 183.30708 -47.291336l0 0c101.23772 0 183.30708 21.17305 183.30708 47.291336l0 0c0 26.118286 -82.06937 47.29135 -183.30708 47.29135l0 0c-101.23771 0 -183.30708 -21.173065 -183.30708 -47.29135z" fill-rule="evenodd"/><path stroke="#000000" stroke-width="2.0" stroke-linejoin="round" stroke-linecap="butt" d="m8.937008 284.1286l0 0c0 -26.118286 82.06938 -47.291336 183.30708 -47.291336l0 0c101.23772 0 183.30708 21.17305 183.30708 47.291336l0 0c0 26.118286 -82.06937 47.29135 -183.30708 47.29135l0 0c-101.23771 0 -183.30708 -21.173065 -183.30708 -47.29135z" fill-rule="evenodd"/><defs><radialGradient id="p.4" gradientUnits="userSpaceOnUse" gradientTransform="matrix(10.398903818353142 0.0 0.0 10.398903818353142 0.0 0.0)" spreadMethod="pad" cx="18.486957649218294" cy="25.257810620723927" fx="18.486957649218294" fy="25.257810620723927" r="10.398903846740723"><stop offset="0.0" stop-color="#bfbfbf"/><stop offset="1.0" stop-color="#737373"/></radialGradient></defs><path fill="url(#p.4)" d="m122.27559 229.64568l139.937 0l33.007874 33.00786l0 33.007874l0 0l-205.95274 0l0 0l0 -33.007874z" fill-rule="evenodd"/><path stroke="#000000" stroke-width="3.0" stroke-linejoin="round" stroke-linecap="butt" d="m122.27559 229.64568l139.937 0l33.007874 33.00786l0 33.007874l0 0l-205.95274 0l0 0l0 -33.007874z" fill-rule="evenodd"/><path fill="#000000" fill-opacity="0.0" d="m58.698162 121.120735l264.59845 0l0 89.95275l-264.59845 0z" fill-rule="evenodd"/><path fill="#ffffff" d="m92.02087 154.60886l0 -3.65625l-3.671875 0l0 -3.671875l7.328125 0l0 3.671875l11.0 0l0 -22.0l7.328125 0l0 22.0l-3.65625 0l0 3.65625l-18.328125 0zm29.32811 0l0 -3.65625l-3.671875 0l0 -11.0l3.671875 0l0 -3.671875l18.328117 0l0 3.671875l3.65625 0l0 7.328125l-18.328117 0l0 3.671875l14.671867 0l0 3.65625l-18.328117 0zm3.65625 -10.984375l10.999992 0l0 -3.671875l-10.999992 0l0 3.671875zm32.999977 10.984375l0 -14.65625l-7.328125 0l0 -3.671875l7.328125 0l0 -7.328125l7.328125 0l0 7.328125l7.328125 0l0 3.671875l-7.328125 0l0 14.65625l-7.328125 0zm18.32811 3.671875l0 -22.0l22.000015 0l0 3.671875l3.65625 0l0 7.328125l-3.65625 0l0 3.671875l-14.67189 0l0 7.328125l-7.328125 0zm7.328125 -11.0l11.000015 0l0 -7.328125l-11.000015 0l0 7.328125zm25.67186 7.328125l0 -3.65625l-3.671875 0l0 -3.671875l3.671875 0l0 -3.65625l14.65625 0l0 -3.671875l-14.65625 0l0 -3.671875l18.328125 0l0 3.671875l3.65625 0l0 14.65625l-21.984375 0zm3.65625 -3.65625l11.0 0l0 -3.671875l-11.0 0l0 3.671875zm25.671875 3.65625l0 -3.65625l-3.671875 0l0 -11.0l3.671875 0l0 -3.671875l21.98436 0l0 3.671875l-18.32811 0l0 11.0l18.32811 0l0 3.65625l-21.98436 0zm25.656204 0l0 -25.65625l7.328125 0l0 14.671875l7.328125 0l0 -3.671875l3.671875 0l0 -3.671875l7.328125 0l0 3.671875l-3.65625 0l0 3.671875l-3.671875 0l0 3.65625l3.671875 0l0 3.671875l3.65625 0l0 3.65625l-7.328125 0l0 -3.65625l-3.671875 0l0 -3.671875l-7.328125 0l0 7.328125l-7.328125 0z" fill-rule="nonzero"/><path fill="#ffffff" d="m77.35681 198.28073l0 -3.671875l14.65625 0l0 -3.65625l-14.65625 0l0 -3.671875l-3.671875 0l0 -7.328125l3.671875 0l0 -3.671875l21.984375 0l0 18.328125l-3.65625 0l0 3.671875l-18.328125 0zm3.65625 -11.0l11.0 0l0 -7.328125l-11.0 0l0 7.328125zm25.67186 7.328125l0 -3.65625l-3.671875 0l0 -14.671875l7.328125 0l0 14.671875l11.0 0l0 -14.671875l7.328125 0l0 18.328125l-21.984375 0zm29.32811 0l0 -3.65625l-3.671875 0l0 -3.671875l3.671875 0l0 -3.65625l14.65625 0l0 -3.671875l-14.65625 0l0 -3.671875l18.328125 0l0 3.671875l3.65625 0l0 14.65625l-21.984375 0zm3.65625 -3.65625l11.0 0l0 -3.671875l-11.0 0l0 3.671875zm32.999985 -11.0l3.65625 0l0 3.671875l-3.65625 0l0 10.984375l-7.328125 0l0 -18.328125l7.328125 0l0 3.671875zm14.65625 -3.671875l0 3.671875l-11.0 0l0 -3.671875l11.0 0zm7.3437347 18.328125l0 -3.65625l-3.671875 0l0 -11.0l3.671875 0l0 -3.671875l14.65625 0l0 -7.328125l7.328125 0l0 25.65625l-21.984375 0zm3.65625 -3.65625l11.0 0l0 -11.0l-11.0 0l0 11.0zm25.67186 3.65625l0 -3.65625l-3.671875 0l0 -3.671875l3.671875 0l0 -3.65625l14.65625 0l0 -3.671875l-14.65625 0l0 -3.671875l18.328125 0l0 3.671875l3.65625 0l0 14.65625l-21.984375 0zm3.65625 -3.65625l11.0 0l0 -3.671875l-11.0 0l0 3.671875zm25.67186 3.65625l0 -3.65625l-3.671875 0l0 -11.0l3.671875 0l0 -3.671875l14.65625 0l0 -7.328125l7.328125 0l0 25.65625l-21.984375 0zm3.65625 -3.65625l11.0 0l0 -11.0l-11.0 0l0 11.0zm25.671844 3.65625l0 -3.65625l-3.671875 0l0 -11.0l3.671875 0l0 -3.671875l18.328125 0l0 3.671875l3.65625 0l0 11.0l-3.65625 0l0 3.65625l-18.328125 0zm3.65625 -3.65625l11.0 0l0 -11.0l-11.0 0l0 11.0z" fill-rule="nonzero"/></g></svg>