<?xml version="1.0" encoding="UTF-8"?>
<!DOCTYPE svg PUBLIC "-//W3C//DTD SVG 1.1//EN" "http://www.w3.org/Graphics/SVG/1.1/DTD/svg11.dtd">
<!-- Creator: CorelDRAW X7 -->
<svg xmlns="http://www.w3.org/2000/svg" xml:space="preserve" width="24.5181mm" height="24.5181mm" version="1.1" style="shape-rendering:geometricPrecision; text-rendering:geometricPrecision; image-rendering:optimizeQuality; fill-rule:evenodd; clip-rule:evenodd"
viewBox="0 0 7555 7555"
 xmlns:xlink="http://www.w3.org/1999/xlink">
 <defs>
  <style type="text/css">
   <![CDATA[
    .str0 {stroke:#6AAB29;stroke-width:23.4809}
    .fil6 {fill:none}
    .fil1 {fill:black}
    .fil5 {fill:#6AAB29}
    .fil0 {fill:#86E000}
    .fil3 {fill:white}
    .fil2 {fill:black;fill-rule:nonzero}
    .fil4 {fill:white;fill-rule:nonzero}
   ]]>
  </style>
 </defs>
 <g id="Capa_x0020_1">
  <metadata id="CorelCorpID_0Corel-Layer"/>
  <g id="_602331984">
   <circle class="fil0" cx="3778" cy="4260" r="2819"/>
   <g>
    <g>
     <path class="fil1" d="M2976 3480c152,0 275,360 275,803 0,443 -123,802 -275,802 -152,0 -275,-359 -275,-802 0,-443 123,-803 275,-803z"/>
     <path id="1" class="fil2" d="M3279 4283l-57 0 0 0 0 -41 -1 -40 -2 -40 -2 -39 -3 -38 -4 -38 -4 -37 -5 -36 -6 -34 -6 -35 -6 -33 -7 -31 -7 -31 -8 -30 -9 -28 -9 -27 -9 -26 -10 -24 -10 -23 -10 -22 -10 -19 -11 -19 -11 -16 -11 -15 -11 -12 -12 -11 -11 -10 -10 -7 -11 -5 -10 -4 -10 -2 -10 -1 0 -57 18 1 18 4 17 7 17 8 16 11 15 12 14 15 14 15 13 18 13 19 12 20 12 22 11 24 11 25 10 26 10 27 10 29 8 30 9 31 8 32 7 33 7 34 6 35 5 36 5 37 5 38 4 39 3 39 2 40 2 41 1 41 0 42 0 0zm-303 831l0 -57 0 0 10 -1 10 -2 10 -4 11 -6 10 -7 11 -9 12 -11 11 -13 11 -15 11 -16 11 -18 10 -20 10 -21 10 -23 10 -24 9 -26 9 -27 9 -29 8 -29 7 -31 7 -32 6 -33 6 -34 6 -35 5 -36 4 -37 4 -37 3 -39 2 -39 2 -39 1 -40 0 -41 57 0 0 41 -1 42 -2 40 -2 40 -3 40 -4 38 -5 38 -5 37 -5 36 -6 35 -7 35 -7 33 -8 32 -9 31 -8 30 -10 28 -10 28 -10 26 -11 25 -11 23 -12 22 -12 20 -13 20 -13 17 -14 16 -14 14 -15 13 -16 10 -17 9 -17 6 -18 4 -18 2 0 0zm-304 -831l58 0 0 0 0 41 1 40 2 39 2 39 3 39 4 37 4 37 5 36 5 35 6 34 7 33 7 32 7 31 8 29 9 29 8 27 10 26 9 24 10 23 11 21 10 20 11 18 11 16 11 15 11 13 11 11 11 9 11 7 11 6 10 4 10 2 10 1 0 57 -18 -2 -18 -4 -18 -6 -16 -9 -16 -10 -15 -13 -14 -14 -14 -16 -14 -17 -12 -20 -13 -20 -11 -22 -12 -23 -10 -25 -11 -26 -9 -28 -10 -28 -9 -30 -8 -31 -8 -32 -7 -33 -7 -35 -6 -35 -6 -36 -5 -37 -4 -38 -4 -38 -3 -40 -2 -40 -2 -40 -1 -42 -1 -41 0 0zm304 -831l0 57 0 0 -10 1 -10 2 -10 4 -11 5 -11 7 -11 10 -11 11 -11 12 -11 15 -11 16 -11 19 -10 19 -11 22 -10 23 -9 24 -10 26 -8 27 -9 28 -8 30 -7 31 -7 31 -7 33 -6 35 -5 34 -5 36 -4 37 -4 38 -3 38 -2 39 -2 40 -1 40 0 41 -58 0 1 -42 1 -41 2 -41 2 -40 3 -39 4 -39 4 -38 5 -37 6 -36 6 -35 7 -34 7 -33 8 -32 8 -31 9 -30 10 -29 9 -27 11 -26 10 -25 12 -24 11 -22 13 -20 12 -19 14 -18 14 -15 14 -15 15 -12 16 -11 16 -8 18 -7 18 -4 18 -1 0 0z"/>
    </g>
    <g>
     <path class="fil3" d="M2976 4458c85,0 153,130 153,289 0,160 -68,289 -153,289 -85,0 -153,-129 -153,-289 0,-159 68,-289 153,-289z"/>
     <path id="1" class="fil4" d="M3158 4747l-57 0 0 0 0 -14 -1 -14 -1 -13 -1 -14 -2 -13 -2 -13 -2 -13 -3 -12 -2 -12 -4 -12 -3 -11 -4 -11 -4 -10 -4 -10 -4 -10 -5 -9 -5 -8 -5 -8 -5 -8 -5 -7 -5 -6 -5 -6 -6 -5 -5 -5 -6 -4 -5 -3 -5 -3 -5 -2 -6 -2 -5 -1 -5 -1 -5 0 0 -57 10 0 11 2 10 2 10 4 10 4 9 5 9 5 8 7 9 7 7 7 8 8 7 9 7 9 6 10 7 10 6 11 5 11 5 11 5 12 5 12 4 13 4 13 4 13 3 14 3 13 3 15 2 14 2 15 1 15 1 15 1 16 0 15 0 0zm-182 318l0 -57 0 0 5 -1 5 0 5 -2 6 -1 5 -3 5 -2 5 -4 6 -4 5 -4 6 -6 5 -5 5 -7 5 -7 5 -7 5 -8 5 -9 5 -9 4 -9 4 -10 4 -11 4 -11 3 -11 4 -12 2 -12 3 -12 2 -12 2 -13 2 -14 1 -13 1 -14 1 -14 0 -14 57 0 0 16 -1 15 -1 16 -1 15 -2 14 -2 15 -3 14 -3 14 -3 14 -4 13 -4 13 -4 12 -5 13 -5 12 -5 11 -5 11 -6 11 -7 10 -6 9 -7 9 -7 9 -8 8 -7 8 -9 7 -8 6 -9 6 -9 5 -10 4 -10 3 -10 3 -11 1 -10 1 0 0zm-182 -318l57 0 0 0 0 14 1 14 1 14 1 13 2 14 2 13 2 12 2 12 3 12 3 12 4 11 4 11 4 11 4 10 4 9 5 9 4 9 5 8 5 7 6 7 5 7 5 5 6 6 5 4 5 4 6 4 5 2 5 3 5 1 6 2 5 0 5 1 0 57 -11 -1 -10 -1 -10 -3 -10 -3 -10 -4 -9 -5 -9 -6 -9 -6 -8 -7 -8 -8 -7 -8 -7 -9 -7 -9 -7 -9 -6 -10 -6 -11 -5 -11 -6 -11 -5 -12 -4 -13 -4 -12 -4 -13 -4 -13 -3 -14 -3 -14 -3 -14 -2 -15 -2 -14 -1 -15 -1 -16 -1 -15 0 -16 0 0zm182 -317l0 57 0 0 -5 0 -5 1 -6 1 -5 2 -5 2 -5 3 -6 3 -5 4 -5 5 -6 5 -5 6 -5 6 -6 7 -5 8 -5 8 -4 8 -5 9 -4 10 -4 10 -4 10 -4 11 -4 11 -3 12 -3 12 -2 12 -2 13 -2 13 -2 13 -1 14 -1 13 -1 14 0 14 -57 0 0 -15 1 -16 1 -15 1 -15 2 -15 2 -14 3 -15 3 -13 3 -14 4 -13 4 -13 4 -13 4 -12 5 -12 6 -11 5 -11 6 -11 6 -10 7 -10 7 -9 7 -9 7 -8 8 -7 8 -7 9 -7 9 -5 9 -5 10 -4 10 -4 10 -2 10 -2 11 0 0 0z"/>
    </g>
    <g>
     <path class="fil1" d="M3778 3480c151,0 275,360 275,803 0,443 -124,802 -275,802 -152,0 -275,-359 -275,-802 0,-443 123,-803 275,-803z"/>
     <path id="1" class="fil2" d="M4081 4283l-57 0 0 0 0 -41 -1 -40 -2 -40 -3 -39 -3 -38 -3 -38 -4 -37 -5 -36 -6 -34 -6 -35 -6 -33 -7 -31 -8 -31 -8 -30 -8 -28 -9 -27 -9 -26 -10 -24 -10 -23 -10 -22 -11 -19 -11 -19 -10 -16 -12 -15 -11 -12 -11 -11 -11 -10 -11 -7 -10 -5 -10 -4 -10 -2 -10 -1 0 -57 18 1 18 4 17 7 17 8 15 11 16 12 14 15 14 15 13 18 13 19 12 20 12 22 11 24 11 25 10 26 10 27 9 29 9 30 9 31 7 32 8 33 6 34 7 35 5 36 5 37 5 38 3 39 3 39 3 40 2 41 1 41 0 42 0 0zm-303 831l0 -57 0 0 10 -1 10 -2 10 -4 10 -6 11 -7 11 -9 11 -11 11 -13 12 -15 10 -16 11 -18 11 -20 10 -21 10 -23 10 -24 9 -26 9 -27 8 -29 8 -29 8 -31 7 -32 6 -33 6 -34 6 -35 5 -36 4 -37 3 -37 3 -39 3 -39 2 -39 1 -40 0 -41 57 0 0 41 -1 42 -2 40 -3 40 -3 40 -3 38 -5 38 -5 37 -5 36 -7 35 -6 35 -8 33 -7 32 -9 31 -9 30 -9 28 -10 28 -10 26 -11 25 -11 23 -12 22 -12 20 -13 20 -13 17 -14 16 -14 14 -16 13 -15 10 -17 9 -17 6 -18 4 -18 2 0 0zm-304 -831l57 0 0 0 1 41 1 40 1 39 3 39 3 39 3 37 5 37 5 36 5 35 6 34 6 33 7 32 8 31 8 29 8 29 9 27 10 26 9 24 10 23 10 21 11 20 11 18 11 16 11 15 11 13 11 11 11 9 11 7 10 6 11 4 10 2 10 1 0 57 -19 -2 -18 -4 -17 -6 -16 -9 -16 -10 -15 -13 -15 -14 -14 -16 -13 -17 -13 -20 -12 -20 -12 -22 -11 -23 -11 -25 -10 -26 -10 -28 -9 -28 -9 -30 -8 -31 -8 -32 -7 -33 -7 -35 -6 -35 -6 -36 -5 -37 -4 -38 -4 -38 -3 -40 -3 -40 -1 -40 -1 -42 -1 -41 0 0zm304 -831l0 57 0 0 -10 1 -10 2 -11 4 -10 5 -11 7 -11 10 -11 11 -11 12 -11 15 -11 16 -11 19 -11 19 -10 22 -10 23 -9 24 -10 26 -9 27 -8 28 -8 30 -8 31 -7 31 -6 33 -6 35 -5 34 -5 36 -5 37 -3 38 -3 38 -3 39 -1 40 -1 40 -1 41 -57 0 1 -42 1 -41 1 -41 3 -40 3 -39 4 -39 4 -38 5 -37 6 -36 6 -35 7 -34 7 -33 8 -32 8 -31 9 -30 9 -29 10 -27 10 -26 11 -25 11 -24 12 -22 12 -20 13 -19 13 -18 14 -15 15 -15 15 -12 16 -11 16 -8 17 -7 18 -4 19 -1 0 0z"/>
    </g>
    <g>
     <path class="fil3" d="M3778 4447c84,0 153,129 153,289 0,159 -69,289 -153,289 -85,0 -154,-130 -154,-289 0,-160 69,-289 154,-289z"/>
     <path id="1" class="fil4" d="M3960 4736l-57 0 0 0 -1 -14 0 -14 -1 -14 -1 -13 -2 -14 -2 -12 -2 -13 -3 -12 -3 -12 -3 -12 -3 -11 -4 -11 -4 -11 -4 -10 -4 -9 -5 -9 -5 -9 -5 -8 -5 -7 -5 -7 -5 -7 -6 -5 -5 -5 -5 -5 -6 -4 -5 -3 -5 -3 -6 -3 -5 -1 -5 -2 -5 0 -5 -1 0 -57 10 1 11 1 10 3 10 3 9 4 10 5 9 6 8 6 8 7 8 8 8 8 7 9 7 9 6 9 6 11 6 10 6 11 5 12 5 11 5 13 4 12 4 13 4 13 3 14 3 14 2 14 2 15 2 14 2 16 1 15 0 15 1 16 0 0zm-182 317l0 -57 0 0 5 0 5 -1 5 -1 5 -2 6 -2 5 -3 5 -3 6 -4 5 -5 5 -5 6 -6 5 -6 5 -7 5 -8 5 -8 5 -8 5 -9 4 -10 4 -10 4 -10 4 -11 3 -11 3 -12 3 -12 3 -12 2 -13 2 -13 2 -13 1 -13 1 -14 0 -14 1 -14 57 0 -1 15 0 16 -1 15 -2 15 -2 15 -2 14 -2 15 -3 14 -3 13 -4 13 -4 13 -4 13 -5 12 -5 12 -5 11 -6 12 -6 10 -6 10 -6 10 -7 9 -7 9 -8 8 -8 7 -8 7 -8 7 -9 5 -10 5 -9 5 -10 3 -10 2 -11 2 -10 0 0 0zm-182 -317l57 0 0 0 0 14 1 14 0 14 2 13 1 13 2 13 3 13 2 12 3 12 3 12 4 11 3 11 4 10 4 10 5 10 4 9 5 8 5 8 5 8 5 7 6 6 5 6 5 5 6 5 5 4 5 3 6 3 5 2 5 2 5 1 5 1 6 0 0 57 -11 0 -10 -2 -11 -2 -10 -3 -9 -5 -9 -5 -9 -5 -9 -7 -8 -7 -8 -7 -7 -8 -8 -9 -6 -9 -7 -10 -6 -10 -6 -10 -6 -12 -5 -11 -5 -12 -4 -12 -5 -13 -4 -13 -3 -13 -4 -13 -2 -14 -3 -15 -2 -14 -2 -15 -1 -15 -1 -15 -1 -16 0 -15 0 0zm182 -318l0 57 0 0 -6 1 -5 0 -5 2 -5 1 -5 3 -6 3 -5 3 -5 4 -6 5 -5 5 -5 5 -6 7 -5 7 -5 7 -5 8 -5 9 -4 9 -5 9 -4 10 -4 11 -3 11 -4 11 -3 12 -3 12 -2 12 -3 13 -2 12 -1 14 -2 13 0 14 -1 14 0 14 -57 0 0 -16 1 -15 1 -15 1 -16 2 -14 2 -15 3 -14 2 -14 4 -14 3 -13 4 -13 5 -12 4 -13 5 -11 5 -12 6 -11 6 -10 6 -11 7 -9 6 -9 8 -9 7 -8 8 -8 8 -7 9 -6 9 -6 9 -5 9 -4 10 -3 11 -3 10 -1 11 -1 0 0z"/>
    </g>
    <g>
     <path class="fil1" d="M4579 3480c152,0 275,360 275,803 0,443 -123,802 -275,802 -151,0 -275,-359 -275,-802 0,-443 124,-803 275,-803z"/>
     <path id="1" class="fil2" d="M4883 4283l-57 0 0 0 -1 -41 -1 -40 -1 -40 -3 -39 -3 -38 -3 -38 -5 -37 -5 -36 -5 -34 -6 -35 -6 -33 -7 -31 -8 -31 -8 -30 -8 -28 -9 -27 -10 -26 -9 -24 -10 -23 -10 -22 -11 -19 -11 -19 -11 -16 -11 -15 -11 -12 -11 -11 -11 -10 -11 -7 -10 -5 -11 -4 -10 -2 -10 -1 0 -57 19 1 18 4 17 7 16 8 16 11 15 12 15 15 14 15 13 18 13 19 12 20 12 22 11 24 11 25 10 26 10 27 9 29 9 30 8 31 8 32 7 33 7 34 6 35 6 36 5 37 4 38 4 39 3 39 3 40 1 41 1 41 1 42 0 0zm-304 831l0 -57 0 0 10 -1 10 -2 11 -4 10 -6 11 -7 11 -9 11 -11 11 -13 11 -15 11 -16 11 -18 11 -20 10 -21 10 -23 9 -24 10 -26 9 -27 8 -29 8 -29 8 -31 7 -32 6 -33 6 -34 5 -35 5 -36 5 -37 3 -37 3 -39 3 -39 1 -39 1 -40 1 -41 57 0 -1 41 -1 42 -1 40 -3 40 -3 40 -4 38 -4 38 -5 37 -6 36 -6 35 -7 35 -7 33 -8 32 -8 31 -9 30 -9 28 -10 28 -10 26 -11 25 -11 23 -12 22 -12 20 -13 20 -13 17 -14 16 -15 14 -15 13 -16 10 -16 9 -17 6 -18 4 -19 2 0 0zm-303 -831l57 0 0 0 0 41 1 40 2 39 3 39 3 39 3 37 4 37 5 36 6 35 6 34 6 33 7 32 8 31 8 29 8 29 9 27 9 26 10 24 10 23 10 21 11 20 11 18 10 16 12 15 11 13 11 11 11 9 11 7 10 6 10 4 10 2 10 1 0 57 -18 -2 -18 -4 -17 -6 -17 -9 -15 -10 -16 -13 -14 -14 -14 -16 -13 -17 -13 -20 -12 -20 -12 -22 -11 -23 -11 -25 -10 -26 -10 -28 -9 -28 -9 -30 -9 -31 -7 -32 -8 -33 -6 -35 -7 -35 -5 -36 -5 -37 -5 -38 -3 -38 -3 -40 -3 -40 -2 -40 -1 -42 0 -41 0 0zm303 -831l0 57 0 0 -10 1 -10 2 -10 4 -10 5 -11 7 -11 10 -11 11 -11 12 -12 15 -10 16 -11 19 -11 19 -10 22 -10 23 -10 24 -9 26 -9 27 -8 28 -8 30 -8 31 -7 31 -6 33 -6 35 -6 34 -5 36 -4 37 -3 38 -3 38 -3 39 -2 40 -1 40 0 41 -57 0 0 -42 1 -41 2 -41 3 -40 3 -39 3 -39 5 -38 5 -37 5 -36 7 -35 6 -34 8 -33 7 -32 9 -31 9 -30 9 -29 10 -27 10 -26 11 -25 11 -24 12 -22 12 -20 13 -19 13 -18 14 -15 14 -15 16 -12 15 -11 17 -8 17 -7 18 -4 18 -1 0 0z"/>
    </g>
    <g>
     <path class="fil3" d="M4579 4423c85,0 154,129 154,289 0,159 -69,289 -154,289 -84,0 -153,-130 -153,-289 0,-160 69,-289 153,-289z"/>
     <path id="1" class="fil4" d="M4761 4712l-57 0 0 0 0 -15 -1 -13 -1 -14 -1 -14 -1 -13 -2 -13 -3 -12 -2 -13 -3 -12 -3 -11 -4 -12 -3 -10 -4 -11 -4 -10 -5 -9 -4 -9 -5 -9 -5 -8 -5 -7 -5 -7 -6 -7 -5 -6 -5 -5 -6 -4 -5 -4 -6 -4 -5 -3 -5 -2 -5 -2 -5 -1 -5 -1 -6 0 0 -57 11 1 10 1 11 3 9 3 10 4 9 5 9 6 9 6 8 7 8 8 7 8 8 8 6 10 7 9 6 10 6 11 6 11 5 11 5 12 4 12 5 13 4 13 3 13 3 14 3 14 3 14 2 14 2 15 1 15 1 15 1 16 0 16 0 0zm-182 317l0 -57 0 0 6 0 5 -1 5 -1 5 -2 5 -2 5 -3 6 -4 5 -4 6 -4 5 -5 5 -6 6 -6 5 -7 5 -8 5 -8 5 -9 4 -9 5 -9 4 -10 4 -11 3 -10 4 -12 3 -11 3 -12 2 -13 3 -12 2 -13 1 -13 1 -14 1 -13 1 -14 0 -14 57 0 0 15 -1 16 -1 15 -1 15 -2 15 -2 14 -3 14 -3 14 -3 14 -3 13 -4 13 -5 13 -4 12 -5 12 -5 11 -6 11 -6 11 -6 10 -7 10 -6 9 -8 8 -7 9 -8 7 -8 7 -9 6 -9 6 -9 5 -10 4 -9 4 -11 2 -10 2 -11 0 0 0zm-182 -317l57 0 0 0 1 14 0 14 1 13 1 14 2 13 2 13 2 12 3 13 3 12 3 11 3 12 4 10 4 11 4 10 4 9 5 9 5 9 5 8 5 8 5 7 5 6 6 6 5 5 5 4 6 4 5 4 5 3 6 2 5 2 5 1 5 1 5 0 0 57 -10 0 -11 -2 -10 -2 -10 -4 -10 -4 -9 -5 -9 -6 -8 -6 -8 -7 -8 -7 -8 -9 -7 -8 -7 -9 -6 -10 -6 -10 -6 -11 -6 -11 -5 -11 -5 -12 -5 -12 -4 -13 -4 -13 -4 -13 -3 -14 -3 -14 -2 -14 -3 -14 -1 -15 -2 -15 -1 -15 0 -16 -1 -15 0 0zm182 -318l0 57 0 0 -5 0 -5 1 -5 1 -5 2 -6 2 -5 3 -5 4 -6 4 -5 4 -5 5 -6 6 -5 7 -5 7 -5 7 -5 8 -5 9 -5 9 -4 9 -4 10 -4 11 -4 10 -3 12 -3 11 -3 12 -3 13 -2 12 -2 13 -2 13 -1 14 -1 14 0 13 -1 15 -57 0 1 -16 0 -16 1 -15 2 -15 1 -15 3 -14 2 -14 3 -14 3 -14 4 -13 4 -13 4 -13 5 -12 5 -12 5 -11 6 -11 6 -11 6 -10 6 -9 7 -10 7 -8 8 -8 8 -8 8 -7 8 -6 9 -6 9 -5 10 -4 10 -3 10 -3 11 -1 10 -1 0 0z"/>
    </g>
   </g>
   <g>
    <rect class="fil5" transform="matrix(-0.323113 -0.183396 -0.183397 0.323113 6132.97 845.823)" width="1696" height="4957" rx="848" ry="848"/>
    <ellipse class="fil5" transform="matrix(-0.440711 -0.250144 -0.183397 0.323113 5822.65 823.593)" rx="1057" ry="699"/>
   </g>
   <g>
    <rect class="fil5" transform="matrix(0.324608 -0.184245 0.184245 0.324607 1436.03 874.597)" width="1696" height="4957" rx="848" ry="848"/>
    <ellipse class="fil5" transform="matrix(0.442749 -0.2513 0.184245 0.324607 1747.79 852.263)" rx="1057" ry="699"/>
   </g>
   <circle class="fil5 str0" cx="4328" cy="2417" r="198"/>
  </g>
  <rect class="fil6" width="7555" height="7555"/>
 </g>
</svg>
